<?xml version="1.0" encoding="UTF-8"?>
<svg width="640px" height="384px" viewBox="0 0 640 384" version="1.1" xmlns="http://www.w3.org/2000/svg" xmlns:xlink="http://www.w3.org/1999/xlink">
    <title>Art 2127 - Network 4</title>
    <g id="Art-2127---Network-4" stroke="none" stroke-width="1" fill="none" fill-rule="evenodd">
        <rect fill="#F5FCFF" x="0" y="0" width="640" height="384"></rect>
        <path d="M640,0 L640,384 L0,384 L0,0 L640,0 Z M639,1 L1,1 L1,383 L639,383 L639,1 Z" id="Rectangle" fill="#10162F" fill-rule="nonzero"></path>
        <circle id="Oval" fill="#F5FFE3" cx="137.5" cy="109.5" r="43.5"></circle>
        <circle id="Oval-Copy" fill="#F5FFE3" cx="137.5" cy="209.5" r="43.5"></circle>
        <circle id="Oval-Copy-3" fill="#FFFAE5" cx="461.5" cy="209.5" r="43.5"></circle>
        <circle id="Oval-Copy-2" fill="#FDF6FE" cx="137.5" cy="310.5" r="43.5"></circle>
        <circle id="Oval" stroke="#10162F" cx="137.5" cy="109.5" r="43"></circle>
        <circle id="Oval-Copy" stroke="#10162F" cx="137.5" cy="209.5" r="43"></circle>
        <circle id="Oval-Copy-3" stroke="#10162F" cx="461.5" cy="209.5" r="43"></circle>
        <circle id="Oval-Copy-2" stroke="#10162F" cx="137.5" cy="310.5" r="43"></circle>
        <g id="Input-Layer" transform="translate(95.104, 33.3)" fill="#10162F" fill-rule="nonzero">
            <polygon id="Path" points="0 1.08 2.196 1.08 2.196 7.62 0 7.62 0 8.7 5.532 8.7 5.532 7.62 3.336 7.62 3.336 1.08 5.532 1.08 5.532 0 0 0"></polygon>
            <path d="M9.12,2.244 L8.016,2.244 L8.016,8.7 L9.12,8.7 L9.12,5.196 C9.12,3.816 9.66,3.072 10.656,3.072 C11.856,3.072 11.94,3.936 11.94,4.98 L11.94,8.7 L13.044,8.7 L13.044,4.596 C13.044,3.168 12.576,2.136 11.016,2.136 C9.996,2.136 9.444,2.604 9.12,3.156 L9.12,2.244 Z" id="Path"></path>
            <path d="M16.824,2.244 L15.72,2.244 L15.72,10.8 L16.824,10.8 L16.824,7.788 C17.184,8.4 17.772,8.856 18.732,8.856 C20.22,8.856 21.336,7.632 21.336,5.496 C21.336,3.372 20.22,2.136 18.732,2.136 C17.772,2.136 17.184,2.592 16.824,3.216 L16.824,2.244 Z M16.776,5.496 C16.776,3.792 17.58,3.06 18.504,3.06 C19.608,3.06 20.172,3.96 20.172,5.496 C20.172,7.032 19.608,7.944 18.504,7.944 C17.58,7.944 16.776,7.2 16.776,5.496 Z" id="Shape"></path>
            <path d="M27.42,8.7 L28.524,8.7 L28.524,2.244 L27.42,2.244 L27.42,5.796 C27.42,7.176 26.88,7.908 25.884,7.908 C24.684,7.908 24.624,7.056 24.624,6.012 L24.624,2.244 L23.52,2.244 L23.52,6.396 C23.52,7.824 23.964,8.856 25.524,8.856 C26.556,8.856 27.072,8.424 27.42,7.872 L27.42,8.7 Z" id="Path"></path>
            <path d="M32.268,2.244 L30.432,2.244 L30.432,3.192 L32.268,3.192 L32.268,7.08 C32.268,8.424 32.604,8.7 33.78,8.7 L36.012,8.7 L36.012,7.752 L34.02,7.752 C33.408,7.752 33.372,7.584 33.372,6.924 L33.372,3.192 L36.012,3.192 L36.012,2.244 L33.372,2.244 L33.372,0.624 L32.268,0.624 L32.268,2.244 Z" id="Path"></path>
            <polygon id="Path" points="48.048 0 46.908 0 46.908 8.7 52.32 8.7 52.32 7.62 48.048 7.62"></polygon>
            <path d="M56.388,8.856 C57.588,8.856 58.26,8.424 58.656,7.752 L58.668,8.7 L59.724,8.7 C59.688,8.268 59.628,7.344 59.64,6.264 L59.652,4.692 C59.676,2.904 58.908,2.112 57.12,2.112 C55.776,2.112 54.552,2.892 54.444,4.284 L55.572,4.284 C55.644,3.492 56.112,3 57.108,3 C57.948,3 58.56,3.336 58.56,4.452 L58.56,4.728 C55.92,5.016 54.288,5.484 54.288,7.02 C54.288,8.184 55.224,8.856 56.388,8.856 Z M58.644,5.784 C58.644,7.5 57.684,7.968 56.7,7.968 C55.92,7.968 55.476,7.608 55.476,6.996 C55.476,6.072 56.676,5.796 58.644,5.604 L58.644,5.784 Z" id="Shape"></path>
            <path d="M63.108,10.8 C64.476,10.8 64.836,10.248 65.292,8.976 L67.68,2.244 L66.54,2.244 L64.824,7.224 L63.072,2.244 L61.86,2.244 L64.272,8.7 L64.224,8.844 C63.888,9.768 63.672,9.852 63,9.852 L61.836,9.852 L61.836,10.8 L63.108,10.8 Z" id="Path"></path>
            <path d="M72.576,8.856 C74.088,8.856 75.096,7.992 75.36,6.768 L74.22,6.768 C73.992,7.5 73.512,7.956 72.552,7.956 C71.532,7.956 70.812,7.104 70.812,5.808 L75.456,5.808 C75.54,3.504 74.46,2.124 72.576,2.124 C70.872,2.124 69.648,3.42 69.648,5.496 C69.648,7.404 70.62,8.856 72.576,8.856 Z M72.576,3.036 C73.704,3.036 74.292,3.84 74.28,4.896 L70.824,4.896 C70.872,3.648 71.532,3.036 72.576,3.036 Z" id="Shape"></path>
            <path d="M77.448,2.244 L77.448,3.192 L79.284,3.192 L79.284,7.752 L77.46,7.752 L77.46,8.7 L82.596,8.7 L82.596,7.752 L80.388,7.752 L80.388,5.484 C80.388,4.068 80.868,3.252 82.104,3.252 L83.196,3.252 L83.196,2.244 L82.092,2.244 C81.3,2.244 80.676,2.676 80.364,3.396 L80.364,2.244 L77.448,2.244 Z" id="Path"></path>
        </g>
        <g id="size_sqft" transform="translate(104.376, 105.3)" fill="#10162F" fill-rule="nonzero">
            <path d="M5.1,4.008 C4.86,2.856 3.924,2.136 2.556,2.136 C1.476,2.136 0.12,2.676 0.12,3.924 C0.12,5.04 0.924,5.544 1.944,5.748 L2.748,5.904 C3.564,6.048 4.104,6.348 4.104,6.948 C4.104,7.704 3.348,7.944 2.664,7.944 C1.764,7.944 1.308,7.512 1.164,6.768 L0,6.768 C0.12,7.8 0.96,8.856 2.64,8.856 C4.044,8.856 5.22,8.184 5.22,6.816 C5.22,5.52 4.02,5.1 2.904,4.884 L2.184,4.74 C1.548,4.608 1.212,4.38 1.212,3.876 C1.212,3.3 1.86,3.048 2.508,3.048 C3.24,3.048 3.804,3.288 3.948,4.008 L5.1,4.008 Z" id="Path"></path>
            <path d="M9.924,5.68434189e-14 L9.924,1.308 L11.028,1.308 L11.028,5.68434189e-14 L9.924,5.68434189e-14 Z M8.1,2.244 L8.1,3.192 L9.924,3.192 L9.924,7.752 L8.1,7.752 L8.1,8.7 L12.864,8.7 L12.864,7.752 L11.028,7.752 L11.028,2.244 L8.1,2.244 Z" id="Shape"></path>
            <polygon id="Path" points="15.492 8.7 20.82 8.7 20.82 7.752 16.836 7.752 20.76 3.192 20.76 2.244 15.72 2.244 15.72 3.192 19.416 3.192 15.492 7.752"></polygon>
            <path d="M25.908,8.856 C27.42,8.856 28.428,7.992 28.692,6.768 L27.552,6.768 C27.324,7.5 26.844,7.956 25.884,7.956 C24.864,7.956 24.144,7.104 24.144,5.808 L28.788,5.808 C28.872,3.504 27.792,2.124 25.908,2.124 C24.204,2.124 22.98,3.42 22.98,5.496 C22.98,7.404 23.952,8.856 25.908,8.856 Z M25.908,3.036 C27.036,3.036 27.624,3.84 27.612,4.896 L24.156,4.896 C24.204,3.648 24.864,3.036 25.908,3.036 Z" id="Shape"></path>
            <polygon id="Path" points="35.976 9.732 35.976 8.7 31.26 8.7 31.26 9.732"></polygon>
            <path d="M43.86,4.008 C43.62,2.856 42.684,2.136 41.316,2.136 C40.236,2.136 38.88,2.676 38.88,3.924 C38.88,5.04 39.684,5.544 40.704,5.748 L41.508,5.904 C42.324,6.048 42.864,6.348 42.864,6.948 C42.864,7.704 42.108,7.944 41.424,7.944 C40.524,7.944 40.068,7.512 39.924,6.768 L38.76,6.768 C38.88,7.8 39.72,8.856 41.4,8.856 C42.804,8.856 43.98,8.184 43.98,6.816 C43.98,5.52 42.78,5.1 41.664,4.884 L40.944,4.74 C40.308,4.608 39.972,4.38 39.972,3.876 C39.972,3.3 40.62,3.048 41.268,3.048 C42,3.048 42.564,3.288 42.708,4.008 L43.86,4.008 Z" id="Path"></path>
            <path d="M50.592,3.216 C50.22,2.592 49.644,2.136 48.672,2.136 C47.196,2.136 46.08,3.372 46.08,5.496 C46.08,7.62 47.196,8.856 48.672,8.856 C49.644,8.856 50.22,8.4 50.592,7.788 L50.592,10.8 L51.696,10.8 L51.696,2.244 L50.592,2.244 L50.592,3.216 Z M50.64,5.496 C50.64,7.2 49.824,7.932 48.912,7.932 C47.796,7.932 47.244,7.032 47.244,5.496 C47.244,3.96 47.796,3.06 48.912,3.06 C49.824,3.06 50.64,3.792 50.64,5.496 Z" id="Shape"></path>
            <path d="M55.644,2.244 L53.928,2.244 L53.928,3.192 L55.644,3.192 L55.644,8.7 L56.748,8.7 L56.748,3.192 L59.64,3.192 L59.64,2.244 L56.748,2.244 L56.748,1.776 C56.748,1.104 56.844,0.936 57.384,0.936 L59.64,0.936 L59.64,5.68434189e-14 L57.36,5.68434189e-14 C55.968,5.68434189e-14 55.644,0.432 55.644,1.776 L55.644,2.244 Z" id="Path"></path>
            <path d="M63.12,2.244 L61.284,2.244 L61.284,3.192 L63.12,3.192 L63.12,7.08 C63.12,8.424 63.456,8.7 64.632,8.7 L66.864,8.7 L66.864,7.752 L64.872,7.752 C64.26,7.752 64.224,7.584 64.224,6.924 L64.224,3.192 L66.864,3.192 L66.864,2.244 L64.224,2.244 L64.224,0.624 L63.12,0.624 L63.12,2.244 Z" id="Path"></path>
        </g>
        <g id="age" transform="translate(127.5, 207.412)" fill="#10162F" fill-rule="nonzero">
            <path d="M2.1,6.744 C3.3,6.744 3.972,6.312 4.368,5.64 L4.38,6.588 L5.436,6.588 C5.4,6.156 5.34,5.232 5.352,4.152 L5.364,2.58 C5.388,0.792 4.62,0 2.832,0 C1.488,0 0.264,0.78 0.156,2.172 L1.284,2.172 C1.356,1.38 1.824,0.888 2.82,0.888 C3.66,0.888 4.272,1.224 4.272,2.34 L4.272,2.616 C1.632,2.904 0,3.372 0,4.908 C0,6.072 0.936,6.744 2.1,6.744 Z M4.356,3.672 C4.356,5.388 3.396,5.856 2.412,5.856 C1.632,5.856 1.188,5.496 1.188,4.884 C1.188,3.96 2.388,3.684 4.356,3.492 L4.356,3.672 Z" id="Shape"></path>
            <path d="M11.976,1.104 C11.616,0.48 11.04,0.024 10.068,0.024 C8.58,0.024 7.464,1.128 7.464,3.252 C7.464,5.388 8.58,6.48 10.068,6.48 C11.04,6.48 11.616,6.036 11.976,5.412 L11.976,6.036 C11.976,6.912 11.856,7.212 11.64,7.464 C11.376,7.776 10.872,7.944 10.32,7.944 C9.372,7.944 9.036,7.548 8.88,6.96 L7.716,6.96 C7.908,8.232 8.904,8.904 10.308,8.904 C11.22,8.904 12.108,8.592 12.564,8.052 C12.912,7.644 13.08,7.104 13.08,5.784 L13.08,0.132 L11.976,0.132 L11.976,1.104 Z M12.024,3.252 C12.024,4.944 11.22,5.568 10.296,5.568 C9.192,5.568 8.628,4.788 8.628,3.252 C8.628,1.716 9.192,0.948 10.296,0.948 C11.22,0.948 12.024,1.548 12.024,3.252 Z" id="Shape"></path>
            <path d="M18.288,6.744 C19.8,6.744 20.808,5.88 21.072,4.656 L19.932,4.656 C19.704,5.388 19.224,5.844 18.264,5.844 C17.244,5.844 16.524,4.992 16.524,3.696 L21.168,3.696 C21.252,1.392 20.172,0.012 18.288,0.012 C16.584,0.012 15.36,1.308 15.36,3.384 C15.36,5.292 16.332,6.744 18.288,6.744 Z M18.288,0.924 C19.416,0.924 20.004,1.728 19.992,2.784 L16.536,2.784 C16.584,1.536 17.244,0.924 18.288,0.924 Z" id="Shape"></path>
        </g>
        <g id="10" transform="translate(41.816, 205.144)" fill="#10162F" fill-rule="nonzero">
            <path d="M2.604,0.156 C2.16,1.104 1.452,1.26 0,1.296 L0,2.052 L2.22,2.052 L2.22,7.908 L0,7.908 L0,8.856 L5.148,8.856 L5.148,7.908 L3.324,7.908 L3.324,0.156 L2.604,0.156 Z" id="Path"></path>
            <path d="M10.296,9.012 C12.492,9.012 13.344,7.164 13.344,4.464 C13.344,1.764 12.492,0 10.296,0 C8.1,0 7.26,1.764 7.26,4.464 C7.26,7.164 8.1,9.012 10.296,9.012 Z M8.376,4.464 C8.376,2.088 8.988,0.936 10.296,0.936 C11.34,0.936 11.952,1.68 12.144,3.192 L8.388,4.908 C8.376,4.764 8.376,4.62 8.376,4.464 Z M10.296,8.064 C9.264,8.064 8.664,7.308 8.46,5.82 L12.216,4.08 C12.228,4.212 12.228,4.332 12.228,4.464 C12.228,6.84 11.604,8.064 10.296,8.064 Z" id="Shape"></path>
        </g>
        <g id="500-copy" transform="translate(33.608, 105.144)" fill="#10162F" fill-rule="nonzero">
            <path d="M3,8.064 C1.836,8.064 1.236,7.32 1.116,6.264 L0,6.264 C0.108,7.68 1.056,9.012 2.988,9.012 C4.536,9.012 6.012,7.956 6.012,5.988 C6.012,4.104 4.668,3.048 3.228,3.048 C2.532,3.048 1.884,3.252 1.428,3.696 L1.74,1.092 L5.628,1.092 L5.628,0.156 L0.804,0.156 L0.24,4.872 L1.392,4.92 C1.572,4.5 2.148,4.008 2.976,4.008 C3.876,4.008 4.836,4.584 4.836,6 C4.836,7.32 3.996,8.064 3,8.064 Z" id="Path"></path>
            <path d="M10.752,9.012 C12.948,9.012 13.8,7.164 13.8,4.464 C13.8,1.764 12.948,0 10.752,0 C8.556,0 7.716,1.764 7.716,4.464 C7.716,7.164 8.556,9.012 10.752,9.012 Z M8.832,4.464 C8.832,2.088 9.444,0.936 10.752,0.936 C11.796,0.936 12.408,1.68 12.6,3.192 L8.844,4.908 C8.832,4.764 8.832,4.62 8.832,4.464 Z M10.752,8.064 C9.72,8.064 9.12,7.308 8.916,5.82 L12.672,4.08 C12.684,4.212 12.684,4.332 12.684,4.464 C12.684,6.84 12.06,8.064 10.752,8.064 Z" id="Shape"></path>
            <path d="M18.504,9.012 C20.7,9.012 21.552,7.164 21.552,4.464 C21.552,1.764 20.7,0 18.504,0 C16.308,0 15.468,1.764 15.468,4.464 C15.468,7.164 16.308,9.012 18.504,9.012 Z M16.584,4.464 C16.584,2.088 17.196,0.936 18.504,0.936 C19.548,0.936 20.16,1.68 20.352,3.192 L16.596,4.908 C16.584,4.764 16.584,4.62 16.584,4.464 Z M18.504,8.064 C17.472,8.064 16.872,7.308 16.668,5.82 L20.424,4.08 C20.436,4.212 20.436,4.332 20.436,4.464 C20.436,6.84 19.812,8.064 18.504,8.064 Z" id="Shape"></path>
        </g>
        <g id="-1.5-x-10" transform="translate(269.084, 205.144)" fill="#10162F" fill-rule="nonzero">
            <polygon id="Path" points="3.816 6.084 3.816 5.052 1.13686838e-13 5.052 1.13686838e-13 6.084"></polygon>
            <path d="M9.708,0.156 C9.264,1.104 8.556,1.26 7.104,1.296 L7.104,2.052 L9.324,2.052 L9.324,7.908 L7.104,7.908 L7.104,8.856 L12.252,8.856 L12.252,7.908 L10.428,7.908 L10.428,0.156 L9.708,0.156 Z" id="Path"></path>
            <polygon id="Path" points="18.096 8.856 18.096 7.476 16.716 7.476 16.716 8.856"></polygon>
            <path d="M25.152,8.064 C23.988,8.064 23.388,7.32 23.268,6.264 L22.152,6.264 C22.26,7.68 23.208,9.012 25.14,9.012 C26.688,9.012 28.164,7.956 28.164,5.988 C28.164,4.104 26.82,3.048 25.38,3.048 C24.684,3.048 24.036,3.252 23.58,3.696 L23.892,1.092 L27.78,1.092 L27.78,0.156 L22.956,0.156 L22.392,4.872 L23.544,4.92 C23.724,4.5 24.3,4.008 25.128,4.008 C26.028,4.008 26.988,4.584 26.988,6 C26.988,7.32 26.148,8.064 25.152,8.064 Z" id="Path"></path>
            <polygon id="Path" points="43.404 2.4 42.18 2.4 40.668 4.62 39.168 2.4 37.932 2.4 40.044 5.544 37.8 8.856 39.048 8.856 40.668 6.456 42.288 8.856 43.536 8.856 41.28 5.532"></polygon>
            <path d="M56.22,0.156 C55.776,1.104 55.068,1.26 53.616,1.296 L53.616,2.052 L55.836,2.052 L55.836,7.908 L53.616,7.908 L53.616,8.856 L58.764,8.856 L58.764,7.908 L56.94,7.908 L56.94,0.156 L56.22,0.156 Z" id="Path"></path>
            <path d="M63.912,9.012 C66.108,9.012 66.96,7.164 66.96,4.464 C66.96,1.764 66.108,0 63.912,0 C61.716,0 60.876,1.764 60.876,4.464 C60.876,7.164 61.716,9.012 63.912,9.012 Z M61.992,4.464 C61.992,2.088 62.604,0.936 63.912,0.936 C64.956,0.936 65.568,1.68 65.76,3.192 L62.004,4.908 C61.992,4.764 61.992,4.62 61.992,4.464 Z M63.912,8.064 C62.88,8.064 62.28,7.308 62.076,5.82 L65.832,4.08 C65.844,4.212 65.844,4.332 65.844,4.464 C65.844,6.84 65.22,8.064 63.912,8.064 Z" id="Shape"></path>
        </g>
        <g id="1000-x-1" transform="translate(272.312, 270.144)" fill="#10162F" fill-rule="nonzero">
            <path d="M2.604,0.156 C2.16,1.104 1.452,1.26 0,1.296 L0,2.052 L2.22,2.052 L2.22,7.908 L0,7.908 L0,8.856 L5.148,8.856 L5.148,7.908 L3.324,7.908 L3.324,0.156 L2.604,0.156 Z" id="Path"></path>
            <path d="M10.296,9.012 C12.492,9.012 13.344,7.164 13.344,4.464 C13.344,1.764 12.492,0 10.296,0 C8.1,0 7.26,1.764 7.26,4.464 C7.26,7.164 8.1,9.012 10.296,9.012 Z M8.376,4.464 C8.376,2.088 8.988,0.936 10.296,0.936 C11.34,0.936 11.952,1.68 12.144,3.192 L8.388,4.908 C8.376,4.764 8.376,4.62 8.376,4.464 Z M10.296,8.064 C9.264,8.064 8.664,7.308 8.46,5.82 L12.216,4.08 C12.228,4.212 12.228,4.332 12.228,4.464 C12.228,6.84 11.604,8.064 10.296,8.064 Z" id="Shape"></path>
            <path d="M18.048,9.012 C20.244,9.012 21.096,7.164 21.096,4.464 C21.096,1.764 20.244,0 18.048,0 C15.852,0 15.012,1.764 15.012,4.464 C15.012,7.164 15.852,9.012 18.048,9.012 Z M16.128,4.464 C16.128,2.088 16.74,0.936 18.048,0.936 C19.092,0.936 19.704,1.68 19.896,3.192 L16.14,4.908 C16.128,4.764 16.128,4.62 16.128,4.464 Z M18.048,8.064 C17.016,8.064 16.416,7.308 16.212,5.82 L19.968,4.08 C19.98,4.212 19.98,4.332 19.98,4.464 C19.98,6.84 19.356,8.064 18.048,8.064 Z" id="Shape"></path>
            <path d="M25.8,9.012 C27.996,9.012 28.848,7.164 28.848,4.464 C28.848,1.764 27.996,0 25.8,0 C23.604,0 22.764,1.764 22.764,4.464 C22.764,7.164 23.604,9.012 25.8,9.012 Z M23.88,4.464 C23.88,2.088 24.492,0.936 25.8,0.936 C26.844,0.936 27.456,1.68 27.648,3.192 L23.892,4.908 C23.88,4.764 23.88,4.62 23.88,4.464 Z M25.8,8.064 C24.768,8.064 24.168,7.308 23.964,5.82 L27.72,4.08 C27.732,4.212 27.732,4.332 27.732,4.464 C27.732,6.84 27.108,8.064 25.8,8.064 Z" id="Shape"></path>
            <polygon id="Path" points="44.052 2.4 42.828 2.4 41.316 4.62 39.816 2.4 38.58 2.4 40.692 5.544 38.448 8.856 39.696 8.856 41.316 6.456 42.936 8.856 44.184 8.856 41.928 5.532"></polygon>
            <path d="M56.868,0.156 C56.424,1.104 55.716,1.26 54.264,1.296 L54.264,2.052 L56.484,2.052 L56.484,7.908 L54.264,7.908 L54.264,8.856 L59.412,8.856 L59.412,7.908 L57.588,7.908 L57.588,0.156 L56.868,0.156 Z" id="Path"></path>
        </g>
        <g id="2.5-x-500" transform="translate(268.076, 140.144)" fill="#10162F" fill-rule="nonzero">
            <path d="M3.048,0 C1.284,0 0.132,1.26 0.156,2.916 L1.284,2.916 C1.308,1.488 2.136,0.936 3.036,0.936 C4.02,0.936 4.536,1.584 4.536,2.484 C4.536,4.008 2.916,5.64 0,7.908 L0,8.856 L5.868,8.856 L5.868,7.908 L1.548,7.908 C3.768,6.132 5.712,4.356 5.712,2.34 C5.712,0.864 4.572,0 3.048,0 Z" id="Path"></path>
            <polygon id="Path" points="11.352 8.856 11.352 7.476 9.972 7.476 9.972 8.856"></polygon>
            <path d="M18.408,8.064 C17.244,8.064 16.644,7.32 16.524,6.264 L15.408,6.264 C15.516,7.68 16.464,9.012 18.396,9.012 C19.944,9.012 21.42,7.956 21.42,5.988 C21.42,4.104 20.076,3.048 18.636,3.048 C17.94,3.048 17.292,3.252 16.836,3.696 L17.148,1.092 L21.036,1.092 L21.036,0.156 L16.212,0.156 L15.648,4.872 L16.8,4.92 C16.98,4.5 17.556,4.008 18.384,4.008 C19.284,4.008 20.244,4.584 20.244,6 C20.244,7.32 19.404,8.064 18.408,8.064 Z" id="Path"></path>
            <polygon id="Path" points="36.66 2.4 35.436 2.4 33.924 4.62 32.424 2.4 31.188 2.4 33.3 5.544 31.056 8.856 32.304 8.856 33.924 6.456 35.544 8.856 36.792 8.856 34.536 5.532"></polygon>
            <path d="M49.416,8.064 C48.252,8.064 47.652,7.32 47.532,6.264 L46.416,6.264 C46.524,7.68 47.472,9.012 49.404,9.012 C50.952,9.012 52.428,7.956 52.428,5.988 C52.428,4.104 51.084,3.048 49.644,3.048 C48.948,3.048 48.3,3.252 47.844,3.696 L48.156,1.092 L52.044,1.092 L52.044,0.156 L47.22,0.156 L46.656,4.872 L47.808,4.92 C47.988,4.5 48.564,4.008 49.392,4.008 C50.292,4.008 51.252,4.584 51.252,6 C51.252,7.32 50.412,8.064 49.416,8.064 Z" id="Path"></path>
            <path d="M57.168,9.012 C59.364,9.012 60.216,7.164 60.216,4.464 C60.216,1.764 59.364,0 57.168,0 C54.972,0 54.132,1.764 54.132,4.464 C54.132,7.164 54.972,9.012 57.168,9.012 Z M55.248,4.464 C55.248,2.088 55.86,0.936 57.168,0.936 C58.212,0.936 58.824,1.68 59.016,3.192 L55.26,4.908 C55.248,4.764 55.248,4.62 55.248,4.464 Z M57.168,8.064 C56.136,8.064 55.536,7.308 55.332,5.82 L59.088,4.08 C59.1,4.212 59.1,4.332 59.1,4.464 C59.1,6.84 58.476,8.064 57.168,8.064 Z" id="Shape"></path>
            <path d="M64.92,9.012 C67.116,9.012 67.968,7.164 67.968,4.464 C67.968,1.764 67.116,0 64.92,0 C62.724,0 61.884,1.764 61.884,4.464 C61.884,7.164 62.724,9.012 64.92,9.012 Z M63,4.464 C63,2.088 63.612,0.936 64.92,0.936 C65.964,0.936 66.576,1.68 66.768,3.192 L63.012,4.908 C63,4.764 63,4.62 63,4.464 Z M64.92,8.064 C63.888,8.064 63.288,7.308 63.084,5.82 L66.84,4.08 C66.852,4.212 66.852,4.332 66.852,4.464 C66.852,6.84 66.228,8.064 64.92,8.064 Z" id="Shape"></path>
        </g>
        <g id="+" transform="translate(452.296, 200.784)" fill="#10162F" fill-rule="nonzero">
            <polygon id="Path" points="10.176 17.216 10.176 9.984 17.408 9.984 17.408 7.232 10.176 7.232 10.176 0 7.232 0 7.232 7.232 0 7.232 0 9.984 7.232 9.984 7.232 17.216"></polygon>
        </g>
        <g id="1" transform="translate(135.444, 306.3)" fill="#10162F" fill-rule="nonzero">
            <path d="M2.604,0 C2.16,0.948 1.452,1.104 0,1.14 L0,1.896 L2.22,1.896 L2.22,7.752 L0,7.752 L0,8.7 L5.148,8.7 L5.148,7.752 L3.324,7.752 L3.324,0 L2.604,0 Z" id="Path"></path>
        </g>
        <g id="Output-Layer" transform="translate(414.624, 33.144)" fill="#10162F" fill-rule="nonzero">
            <path d="M3.252,0 C1.08,0 0,1.872 0,4.5 C0,7.116 1.08,9.012 3.252,9.012 C5.424,9.012 6.504,7.116 6.504,4.5 C6.504,1.872 5.424,0 3.252,0 Z M3.252,1.056 C4.692,1.056 5.328,2.304 5.328,4.5 C5.328,6.696 4.692,7.956 3.252,7.956 C1.824,7.956 1.176,6.696 1.176,4.5 C1.176,2.304 1.824,1.056 3.252,1.056 Z" id="Shape"></path>
            <path d="M12.396,8.856 L13.5,8.856 L13.5,2.4 L12.396,2.4 L12.396,5.952 C12.396,7.332 11.856,8.064 10.86,8.064 C9.66,8.064 9.6,7.212 9.6,6.168 L9.6,2.4 L8.496,2.4 L8.496,6.552 C8.496,7.98 8.94,9.012 10.5,9.012 C11.532,9.012 12.048,8.58 12.396,8.028 L12.396,8.856 Z" id="Path"></path>
            <path d="M17.244,2.4 L15.408,2.4 L15.408,3.348 L17.244,3.348 L17.244,7.236 C17.244,8.58 17.58,8.856 18.756,8.856 L20.988,8.856 L20.988,7.908 L18.996,7.908 C18.384,7.908 18.348,7.74 18.348,7.08 L18.348,3.348 L20.988,3.348 L20.988,2.4 L18.348,2.4 L18.348,0.78 L17.244,0.78 L17.244,2.4 Z" id="Path"></path>
            <path d="M25.056,2.4 L23.952,2.4 L23.952,10.956 L25.056,10.956 L25.056,7.944 C25.416,8.556 26.004,9.012 26.964,9.012 C28.452,9.012 29.568,7.788 29.568,5.652 C29.568,3.528 28.452,2.292 26.964,2.292 C26.004,2.292 25.416,2.748 25.056,3.372 L25.056,2.4 Z M25.008,5.652 C25.008,3.948 25.812,3.216 26.736,3.216 C27.84,3.216 28.404,4.116 28.404,5.652 C28.404,7.188 27.84,8.1 26.736,8.1 C25.812,8.1 25.008,7.356 25.008,5.652 Z" id="Shape"></path>
            <path d="M35.652,8.856 L36.756,8.856 L36.756,2.4 L35.652,2.4 L35.652,5.952 C35.652,7.332 35.112,8.064 34.116,8.064 C32.916,8.064 32.856,7.212 32.856,6.168 L32.856,2.4 L31.752,2.4 L31.752,6.552 C31.752,7.98 32.196,9.012 33.756,9.012 C34.788,9.012 35.304,8.58 35.652,8.028 L35.652,8.856 Z" id="Path"></path>
            <path d="M40.5,2.4 L38.664,2.4 L38.664,3.348 L40.5,3.348 L40.5,7.236 C40.5,8.58 40.836,8.856 42.012,8.856 L44.244,8.856 L44.244,7.908 L42.252,7.908 C41.64,7.908 41.604,7.74 41.604,7.08 L41.604,3.348 L44.244,3.348 L44.244,2.4 L41.604,2.4 L41.604,0.78 L40.5,0.78 L40.5,2.4 Z" id="Path"></path>
            <polygon id="Path" points="56.28 0.156 55.14 0.156 55.14 8.856 60.552 8.856 60.552 7.776 56.28 7.776"></polygon>
            <path d="M64.62,9.012 C65.82,9.012 66.492,8.58 66.888,7.908 L66.9,8.856 L67.956,8.856 C67.92,8.424 67.86,7.5 67.872,6.42 L67.884,4.848 C67.908,3.06 67.14,2.268 65.352,2.268 C64.008,2.268 62.784,3.048 62.676,4.44 L63.804,4.44 C63.876,3.648 64.344,3.156 65.34,3.156 C66.18,3.156 66.792,3.492 66.792,4.608 L66.792,4.884 C64.152,5.172 62.52,5.64 62.52,7.176 C62.52,8.34 63.456,9.012 64.62,9.012 Z M66.876,5.94 C66.876,7.656 65.916,8.124 64.932,8.124 C64.152,8.124 63.708,7.764 63.708,7.152 C63.708,6.228 64.908,5.952 66.876,5.76 L66.876,5.94 Z" id="Shape"></path>
            <path d="M71.34,10.956 C72.708,10.956 73.068,10.404 73.524,9.132 L75.912,2.4 L74.772,2.4 L73.056,7.38 L71.304,2.4 L70.092,2.4 L72.504,8.856 L72.456,9 C72.12,9.924 71.904,10.008 71.232,10.008 L70.068,10.008 L70.068,10.956 L71.34,10.956 Z" id="Path"></path>
            <path d="M80.808,9.012 C82.32,9.012 83.328,8.148 83.592,6.924 L82.452,6.924 C82.224,7.656 81.744,8.112 80.784,8.112 C79.764,8.112 79.044,7.26 79.044,5.964 L83.688,5.964 C83.772,3.66 82.692,2.28 80.808,2.28 C79.104,2.28 77.88,3.576 77.88,5.652 C77.88,7.56 78.852,9.012 80.808,9.012 Z M80.808,3.192 C81.936,3.192 82.524,3.996 82.512,5.052 L79.056,5.052 C79.104,3.804 79.764,3.192 80.808,3.192 Z" id="Shape"></path>
            <path d="M85.68,2.4 L85.68,3.348 L87.516,3.348 L87.516,7.908 L85.692,7.908 L85.692,8.856 L90.828,8.856 L90.828,7.908 L88.62,7.908 L88.62,5.64 C88.62,4.224 89.1,3.408 90.336,3.408 L91.428,3.408 L91.428,2.4 L90.324,2.4 C89.532,2.4 88.908,2.832 88.596,3.552 L88.596,2.4 L85.68,2.4 Z" id="Path"></path>
        </g>
        <polygon id="Line" fill="#10162F" fill-rule="nonzero" points="410 205 419 209.5 410 214 410 210 344 210 344 209 410 209"></polygon>
        <polygon id="Line-Copy-2" fill="#10162F" fill-rule="nonzero" points="260.397211 283.963134 260.721084 284.909234 181.188886 312.134987 180.865013 311.188886"></polygon>
        <g id="Group" transform="translate(302, 148.5) scale(1, -1) translate(-302, -148.5)translate(181.5, 107.5)" fill="#10162F" fill-rule="nonzero">
            <polygon id="Line-Copy-3" points="77.7713703 55.010222 78.0934843 55.9569229 -0.312293447 82.6344074 -0.634407442 81.6877066"></polygon>
            <polygon id="Line-Copy-4" points="231.506419 -1.54010663 241.473654 -0.160163276 234.389358 6.98565802 233.107 3.195 165.896179 25.9237431 165.422525 26.0839064 165.102199 25.1365992 165.575853 24.9764359 232.787 2.248"></polygon>
        </g>
        <polygon id="Line-Copy-2" fill="#10162F" fill-rule="nonzero" points="413.003529 227.977815 422.97335 229.338943 415.902555 236.498123 414.614 232.711 345.404691 256.259749 344.93134 256.420806 344.609226 255.474105 345.082577 255.313048 414.291 231.764"></polygon>
        <polygon id="Line-Copy" fill="#10162F" fill-rule="nonzero" points="260 209 260 210 180 210 180 209"></polygon>
        <polygon id="Line-Copy-5" fill="#10162F" fill-rule="nonzero" points="85 205 94 209.5 85 214 85 210 64 210 64 209 85 209"></polygon>
        <polygon id="Line-Copy-7" fill="#10162F" fill-rule="nonzero" points="461.503509 252.496516 462.503484 252.503509 462.499988 253.003496 462.059 316.003 466.059329 316.031676 461.496504 324.999988 457.059549 315.96874 461.059 315.996 461.500012 252.996504"></polygon>
        <polygon id="Line-Copy-6" fill="#10162F" fill-rule="nonzero" points="85 105 94 109.5 85 114 85 110 64 110 64 109 85 109"></polygon>
        <g id="(2.5-x-500)-+-(-1.5" transform="translate(317.304, 341.144)" fill="#10162F" fill-rule="nonzero">
            <path d="M0.492,8.604 C0.164,7.668 0,6.652 0,5.556 C0,4.46 0.164,3.446 0.492,2.514 C0.82,1.582 1.204,0.796 1.644,0.156 L2.556,0.156 C1.596,1.716 1.116,3.516 1.116,5.556 C1.116,7.596 1.596,9.396 2.556,10.956 L1.644,10.956 C1.204,10.316 0.82,9.532 0.492,8.604 Z" id="Path"></path>
            <path d="M9.168,0 C9.952,0 10.592,0.21 11.088,0.63 C11.584,1.05 11.832,1.62 11.832,2.34 C11.832,2.82 11.726,3.302 11.514,3.786 C11.302,4.27 10.984,4.754 10.56,5.238 C10.136,5.722 9.708,6.16 9.276,6.552 C8.844,6.944 8.308,7.396 7.668,7.908 L11.988,7.908 L11.988,8.856 L6.12,8.856 L6.12,7.908 C7.68,6.692 8.826,5.666 9.558,4.83 C10.29,3.994 10.656,3.212 10.656,2.484 C10.656,2.02 10.526,1.646 10.266,1.362 C10.006,1.078 9.636,0.936 9.156,0.936 C8.66,0.936 8.246,1.098 7.914,1.422 C7.582,1.746 7.412,2.244 7.404,2.916 L6.276,2.916 C6.26,2.076 6.52,1.38 7.056,0.828 C7.592,0.276 8.296,0 9.168,0 Z" id="Path"></path>
            <polygon id="Path" points="17.472 8.856 16.092 8.856 16.092 7.476 17.472 7.476"></polygon>
            <path d="M24.528,8.064 C25.048,8.064 25.484,7.88 25.836,7.512 C26.188,7.144 26.364,6.64 26.364,6 C26.364,5.344 26.18,4.848 25.812,4.512 C25.444,4.176 25.008,4.008 24.504,4.008 C24.12,4.008 23.786,4.1 23.502,4.284 C23.218,4.468 23.024,4.68 22.92,4.92 L21.768,4.872 L22.332,0.156 L27.156,0.156 L27.156,1.092 L23.268,1.092 L22.956,3.696 C23.396,3.264 23.996,3.048 24.756,3.048 C25.516,3.048 26.17,3.312 26.718,3.84 C27.266,4.368 27.54,5.084 27.54,5.988 C27.54,6.924 27.242,7.662 26.646,8.202 C26.05,8.742 25.34,9.012 24.516,9.012 C23.604,9.012 22.892,8.746 22.38,8.214 C21.868,7.682 21.584,7.032 21.528,6.264 L22.644,6.264 C22.708,6.816 22.898,7.254 23.214,7.578 C23.53,7.902 23.968,8.064 24.528,8.064 Z" id="Path"></path>
            <polygon id="Path" points="42.78 2.4 40.656 5.532 42.912 8.856 41.664 8.856 40.044 6.456 38.424 8.856 37.176 8.856 39.42 5.544 37.308 2.4 38.544 2.4 40.044 4.62 41.556 2.4"></polygon>
            <path d="M55.536,8.064 C56.056,8.064 56.492,7.88 56.844,7.512 C57.196,7.144 57.372,6.64 57.372,6 C57.372,5.344 57.188,4.848 56.82,4.512 C56.452,4.176 56.016,4.008 55.512,4.008 C55.128,4.008 54.794,4.1 54.51,4.284 C54.226,4.468 54.032,4.68 53.928,4.92 L52.776,4.872 L53.34,0.156 L58.164,0.156 L58.164,1.092 L54.276,1.092 L53.964,3.696 C54.404,3.264 55.004,3.048 55.764,3.048 C56.524,3.048 57.178,3.312 57.726,3.84 C58.274,4.368 58.548,5.084 58.548,5.988 C58.548,6.924 58.25,7.662 57.654,8.202 C57.058,8.742 56.348,9.012 55.524,9.012 C54.612,9.012 53.9,8.746 53.388,8.214 C52.876,7.682 52.592,7.032 52.536,6.264 L53.652,6.264 C53.716,6.816 53.906,7.254 54.222,7.578 C54.538,7.902 54.976,8.064 55.536,8.064 Z" id="Path"></path>
            <path d="M63.288,9.012 C61.264,9.012 60.252,7.496 60.252,4.464 C60.252,1.488 61.264,0 63.288,0 C65.32,0 66.336,1.488 66.336,4.464 C66.336,5.888 66.092,7.002 65.604,7.806 C65.116,8.61 64.344,9.012 63.288,9.012 Z M61.368,4.464 C61.368,4.664 61.372,4.812 61.38,4.908 L65.136,3.192 C64.944,1.688 64.328,0.936 63.288,0.936 C62.632,0.936 62.148,1.226 61.836,1.806 C61.524,2.386 61.368,3.272 61.368,4.464 Z M63.288,8.064 C64.576,8.064 65.22,6.864 65.22,4.464 C65.22,4.296 65.216,4.168 65.208,4.08 L61.452,5.82 C61.66,7.316 62.272,8.064 63.288,8.064 Z" id="Shape"></path>
            <path d="M71.04,9.012 C69.016,9.012 68.004,7.496 68.004,4.464 C68.004,1.488 69.016,0 71.04,0 C73.072,0 74.088,1.488 74.088,4.464 C74.088,5.888 73.844,7.002 73.356,7.806 C72.868,8.61 72.096,9.012 71.04,9.012 Z M69.12,4.464 C69.12,4.664 69.124,4.812 69.132,4.908 L72.888,3.192 C72.696,1.688 72.08,0.936 71.04,0.936 C70.384,0.936 69.9,1.226 69.588,1.806 C69.276,2.386 69.12,3.272 69.12,4.464 Z M71.04,8.064 C72.328,8.064 72.972,6.864 72.972,4.464 C72.972,4.296 72.968,4.168 72.96,4.08 L69.204,5.82 C69.412,7.316 70.024,8.064 71.04,8.064 Z" id="Shape"></path>
            <path d="M79.596,2.52 C79.924,3.448 80.088,4.46 80.088,5.556 C80.088,6.652 79.924,7.664 79.596,8.592 C79.268,9.52 78.88,10.308 78.432,10.956 L77.532,10.956 C78.484,9.388 78.96,7.588 78.96,5.556 C78.96,3.524 78.484,1.724 77.532,0.156 L78.432,0.156 C78.88,0.804 79.268,1.592 79.596,2.52 Z" id="Path"></path>
            <polygon id="Path" points="94.86 8.856 93.756 8.856 93.756 6.144 91.044 6.144 91.044 5.112 93.756 5.112 93.756 2.4 94.86 2.4 94.86 5.112 97.572 5.112 97.572 6.144 94.86 6.144"></polygon>
            <path d="M109.02,8.604 C108.692,7.668 108.528,6.652 108.528,5.556 C108.528,4.46 108.692,3.446 109.02,2.514 C109.348,1.582 109.732,0.796 110.172,0.156 L111.084,0.156 C110.124,1.716 109.644,3.516 109.644,5.556 C109.644,7.596 110.124,9.396 111.084,10.956 L110.172,10.956 C109.732,10.316 109.348,9.532 109.02,8.604 Z" id="Path"></path>
            <polygon id="Path" points="119.472 6.084 115.656 6.084 115.656 5.052 119.472 5.052"></polygon>
            <path d="M125.364,0.156 L126.084,0.156 L126.084,7.908 L127.908,7.908 L127.908,8.856 L122.76,8.856 L122.76,7.908 L124.98,7.908 L124.98,2.052 L122.76,2.052 L122.76,1.296 C123.544,1.28 124.122,1.198 124.494,1.05 C124.866,0.902 125.156,0.604 125.364,0.156 Z" id="Path"></path>
            <polygon id="Path" points="133.752 8.856 132.372 8.856 132.372 7.476 133.752 7.476"></polygon>
            <path d="M140.808,8.064 C141.328,8.064 141.764,7.88 142.116,7.512 C142.468,7.144 142.644,6.64 142.644,6 C142.644,5.344 142.46,4.848 142.092,4.512 C141.724,4.176 141.288,4.008 140.784,4.008 C140.4,4.008 140.066,4.1 139.782,4.284 C139.498,4.468 139.304,4.68 139.2,4.92 L138.048,4.872 L138.612,0.156 L143.436,0.156 L143.436,1.092 L139.548,1.092 L139.236,3.696 C139.676,3.264 140.276,3.048 141.036,3.048 C141.796,3.048 142.45,3.312 142.998,3.84 C143.546,4.368 143.82,5.084 143.82,5.988 C143.82,6.924 143.522,7.662 142.926,8.202 C142.33,8.742 141.62,9.012 140.796,9.012 C139.884,9.012 139.172,8.746 138.66,8.214 C138.148,7.682 137.864,7.032 137.808,6.264 L138.924,6.264 C138.988,6.816 139.178,7.254 139.494,7.578 C139.81,7.902 140.248,8.064 140.808,8.064 Z" id="Path"></path>
            <polygon id="Path" points="159.06 2.4 156.936 5.532 159.192 8.856 157.944 8.856 156.324 6.456 154.704 8.856 153.456 8.856 155.7 5.544 153.588 2.4 154.824 2.4 156.324 4.62 157.836 2.4"></polygon>
            <path d="M171.876,0.156 L172.596,0.156 L172.596,7.908 L174.42,7.908 L174.42,8.856 L169.272,8.856 L169.272,7.908 L171.492,7.908 L171.492,2.052 L169.272,2.052 L169.272,1.296 C170.056,1.28 170.634,1.198 171.006,1.05 C171.378,0.902 171.668,0.604 171.876,0.156 Z" id="Path"></path>
            <path d="M179.568,9.012 C177.544,9.012 176.532,7.496 176.532,4.464 C176.532,1.488 177.544,0 179.568,0 C181.6,0 182.616,1.488 182.616,4.464 C182.616,5.888 182.372,7.002 181.884,7.806 C181.396,8.61 180.624,9.012 179.568,9.012 Z M177.648,4.464 C177.648,4.664 177.652,4.812 177.66,4.908 L181.416,3.192 C181.224,1.688 180.608,0.936 179.568,0.936 C178.912,0.936 178.428,1.226 178.116,1.806 C177.804,2.386 177.648,3.272 177.648,4.464 Z M179.568,8.064 C180.856,8.064 181.5,6.864 181.5,4.464 C181.5,4.296 181.496,4.168 181.488,4.08 L177.732,5.82 C177.94,7.316 178.552,8.064 179.568,8.064 Z" id="Shape"></path>
            <path d="M188.124,2.52 C188.452,3.448 188.616,4.46 188.616,5.556 C188.616,6.652 188.452,7.664 188.124,8.592 C187.796,9.52 187.408,10.308 186.96,10.956 L186.06,10.956 C187.012,9.388 187.488,7.588 187.488,5.556 C187.488,3.524 187.012,1.724 186.06,0.156 L186.96,0.156 C187.408,0.804 187.796,1.592 188.124,2.52 Z" id="Path"></path>
            <polygon id="Path" points="203.388 8.856 202.284 8.856 202.284 6.144 199.572 6.144 199.572 5.112 202.284 5.112 202.284 2.4 203.388 2.4 203.388 5.112 206.1 5.112 206.1 6.144 203.388 6.144"></polygon>
            <path d="M217.548,8.604 C217.22,7.668 217.056,6.652 217.056,5.556 C217.056,4.46 217.22,3.446 217.548,2.514 C217.876,1.582 218.26,0.796 218.7,0.156 L219.612,0.156 C218.652,1.716 218.172,3.516 218.172,5.556 C218.172,7.596 218.652,9.396 219.612,10.956 L218.7,10.956 C218.26,10.316 217.876,9.532 217.548,8.604 Z" id="Path"></path>
            <path d="M226.14,0.156 L226.86,0.156 L226.86,7.908 L228.684,7.908 L228.684,8.856 L223.536,8.856 L223.536,7.908 L225.756,7.908 L225.756,2.052 L223.536,2.052 L223.536,1.296 C224.32,1.28 224.898,1.198 225.27,1.05 C225.642,0.902 225.932,0.604 226.14,0.156 Z" id="Path"></path>
            <path d="M233.832,9.012 C231.808,9.012 230.796,7.496 230.796,4.464 C230.796,1.488 231.808,0 233.832,0 C235.864,0 236.88,1.488 236.88,4.464 C236.88,5.888 236.636,7.002 236.148,7.806 C235.66,8.61 234.888,9.012 233.832,9.012 Z M231.912,4.464 C231.912,4.664 231.916,4.812 231.924,4.908 L235.68,3.192 C235.488,1.688 234.872,0.936 233.832,0.936 C233.176,0.936 232.692,1.226 232.38,1.806 C232.068,2.386 231.912,3.272 231.912,4.464 Z M233.832,8.064 C235.12,8.064 235.764,6.864 235.764,4.464 C235.764,4.296 235.76,4.168 235.752,4.08 L231.996,5.82 C232.204,7.316 232.816,8.064 233.832,8.064 Z" id="Shape"></path>
            <path d="M241.584,9.012 C239.56,9.012 238.548,7.496 238.548,4.464 C238.548,1.488 239.56,0 241.584,0 C243.616,0 244.632,1.488 244.632,4.464 C244.632,5.888 244.388,7.002 243.9,7.806 C243.412,8.61 242.64,9.012 241.584,9.012 Z M239.664,4.464 C239.664,4.664 239.668,4.812 239.676,4.908 L243.432,3.192 C243.24,1.688 242.624,0.936 241.584,0.936 C240.928,0.936 240.444,1.226 240.132,1.806 C239.82,2.386 239.664,3.272 239.664,4.464 Z M241.584,8.064 C242.872,8.064 243.516,6.864 243.516,4.464 C243.516,4.296 243.512,4.168 243.504,4.08 L239.748,5.82 C239.956,7.316 240.568,8.064 241.584,8.064 Z" id="Shape"></path>
            <path d="M249.336,9.012 C247.312,9.012 246.3,7.496 246.3,4.464 C246.3,1.488 247.312,0 249.336,0 C251.368,0 252.384,1.488 252.384,4.464 C252.384,5.888 252.14,7.002 251.652,7.806 C251.164,8.61 250.392,9.012 249.336,9.012 Z M247.416,4.464 C247.416,4.664 247.42,4.812 247.428,4.908 L251.184,3.192 C250.992,1.688 250.376,0.936 249.336,0.936 C248.68,0.936 248.196,1.226 247.884,1.806 C247.572,2.386 247.416,3.272 247.416,4.464 Z M249.336,8.064 C250.624,8.064 251.268,6.864 251.268,4.464 C251.268,4.296 251.264,4.168 251.256,4.08 L247.5,5.82 C247.708,7.316 248.32,8.064 249.336,8.064 Z" id="Shape"></path>
            <polygon id="Path" points="267.588 2.4 265.464 5.532 267.72 8.856 266.472 8.856 264.852 6.456 263.232 8.856 261.984 8.856 264.228 5.544 262.116 2.4 263.352 2.4 264.852 4.62 266.364 2.4"></polygon>
            <path d="M280.404,0.156 L281.124,0.156 L281.124,7.908 L282.948,7.908 L282.948,8.856 L277.8,8.856 L277.8,7.908 L280.02,7.908 L280.02,2.052 L277.8,2.052 L277.8,1.296 C278.584,1.28 279.162,1.198 279.534,1.05 C279.906,0.902 280.196,0.604 280.404,0.156 Z" id="Path"></path>
            <path d="M288.9,2.52 C289.228,3.448 289.392,4.46 289.392,5.556 C289.392,6.652 289.228,7.664 288.9,8.592 C288.572,9.52 288.184,10.308 287.736,10.956 L286.836,10.956 C287.788,9.388 288.264,7.588 288.264,5.556 C288.264,3.524 287.788,1.724 286.836,0.156 L287.736,0.156 C288.184,0.804 288.572,1.592 288.9,2.52 Z" id="Path"></path>
        </g>
    </g>
</svg>