<?xml version="1.0" encoding="UTF-8"?>
<svg width="640px" height="384px" viewBox="0 0 640 384" version="1.1" xmlns="http://www.w3.org/2000/svg" xmlns:xlink="http://www.w3.org/1999/xlink">
    <title>Art 2124 - Network 1</title>
    <g id="Art-2124---Network-1" stroke="none" stroke-width="1" fill="none" fill-rule="evenodd">
        <rect fill="#F5FCFF" x="0" y="0" width="640" height="384"></rect>
        <path d="M640,0 L640,384 L0,384 L0,0 L640,0 Z M639,1 L1,1 L1,383 L639,383 L639,1 Z" id="Rectangle" fill="#10162F" fill-rule="nonzero"></path>
        <circle id="Oval" fill="#F5FFE3" cx="148.5" cy="109.5" r="43.5"></circle>
        <circle id="Oval-Copy" fill="#F5FFE3" cx="148.5" cy="209.5" r="43.5"></circle>
        <circle id="Oval-Copy-3" fill="#FFFAE5" cx="472.5" cy="209.5" r="43.5"></circle>
        <circle id="Oval-Copy-2" fill="#FDF6FE" cx="148.5" cy="310.5" r="43.5"></circle>
        <circle id="Oval" stroke="#10162F" cx="148.5" cy="109.5" r="43"></circle>
        <circle id="Oval-Copy" stroke="#10162F" cx="148.5" cy="209.5" r="43"></circle>
        <circle id="Oval-Copy-3" stroke="#10162F" cx="472.5" cy="209.5" r="43"></circle>
        <circle id="Oval-Copy-2" stroke="#10162F" cx="148.5" cy="310.5" r="43"></circle>
        <g id="Input-Layer" transform="translate(106.104000, 33.300000)" fill="#10162F" fill-rule="nonzero">
            <polygon id="Path" points="0 1.08 2.196 1.08 2.196 7.62 0 7.62 0 8.7 5.532 8.7 5.532 7.62 3.336 7.62 3.336 1.08 5.532 1.08 5.532 0 0 0"></polygon>
            <path d="M9.12,2.244 L8.016,2.244 L8.016,8.7 L9.12,8.7 L9.12,5.196 C9.12,3.816 9.66,3.072 10.656,3.072 C11.856,3.072 11.94,3.936 11.94,4.98 L11.94,8.7 L13.044,8.7 L13.044,4.596 C13.044,3.168 12.576,2.136 11.016,2.136 C9.996,2.136 9.444,2.604 9.12,3.156 L9.12,2.244 Z" id="Path"></path>
            <path d="M16.824,2.244 L15.72,2.244 L15.72,10.8 L16.824,10.8 L16.824,7.788 C17.184,8.4 17.772,8.856 18.732,8.856 C20.22,8.856 21.336,7.632 21.336,5.496 C21.336,3.372 20.22,2.136 18.732,2.136 C17.772,2.136 17.184,2.592 16.824,3.216 L16.824,2.244 Z M16.776,5.496 C16.776,3.792 17.58,3.06 18.504,3.06 C19.608,3.06 20.172,3.96 20.172,5.496 C20.172,7.032 19.608,7.944 18.504,7.944 C17.58,7.944 16.776,7.2 16.776,5.496 Z" id="Shape"></path>
            <path d="M27.42,8.7 L28.524,8.7 L28.524,2.244 L27.42,2.244 L27.42,5.796 C27.42,7.176 26.88,7.908 25.884,7.908 C24.684,7.908 24.624,7.056 24.624,6.012 L24.624,2.244 L23.52,2.244 L23.52,6.396 C23.52,7.824 23.964,8.856 25.524,8.856 C26.556,8.856 27.072,8.424 27.42,7.872 L27.42,8.7 Z" id="Path"></path>
            <path d="M32.268,2.244 L30.432,2.244 L30.432,3.192 L32.268,3.192 L32.268,7.08 C32.268,8.424 32.604,8.7 33.78,8.7 L36.012,8.7 L36.012,7.752 L34.02,7.752 C33.408,7.752 33.372,7.584 33.372,6.924 L33.372,3.192 L36.012,3.192 L36.012,2.244 L33.372,2.244 L33.372,0.624 L32.268,0.624 L32.268,2.244 Z" id="Path"></path>
            <polygon id="Path" points="48.048 0 46.908 0 46.908 8.7 52.32 8.7 52.32 7.62 48.048 7.62"></polygon>
            <path d="M56.388,8.856 C57.588,8.856 58.26,8.424 58.656,7.752 L58.668,8.7 L59.724,8.7 C59.688,8.268 59.628,7.344 59.64,6.264 L59.652,4.692 C59.676,2.904 58.908,2.112 57.12,2.112 C55.776,2.112 54.552,2.892 54.444,4.284 L55.572,4.284 C55.644,3.492 56.112,3 57.108,3 C57.948,3 58.56,3.336 58.56,4.452 L58.56,4.728 C55.92,5.016 54.288,5.484 54.288,7.02 C54.288,8.184 55.224,8.856 56.388,8.856 Z M58.644,5.784 C58.644,7.5 57.684,7.968 56.7,7.968 C55.92,7.968 55.476,7.608 55.476,6.996 C55.476,6.072 56.676,5.796 58.644,5.604 L58.644,5.784 Z" id="Shape"></path>
            <path d="M63.108,10.8 C64.476,10.8 64.836,10.248 65.292,8.976 L67.68,2.244 L66.54,2.244 L64.824,7.224 L63.072,2.244 L61.86,2.244 L64.272,8.7 L64.224,8.844 C63.888,9.768 63.672,9.852 63,9.852 L61.836,9.852 L61.836,10.8 L63.108,10.8 Z" id="Path"></path>
            <path d="M72.576,8.856 C74.088,8.856 75.096,7.992 75.36,6.768 L74.22,6.768 C73.992,7.5 73.512,7.956 72.552,7.956 C71.532,7.956 70.812,7.104 70.812,5.808 L75.456,5.808 C75.54,3.504 74.46,2.124 72.576,2.124 C70.872,2.124 69.648,3.42 69.648,5.496 C69.648,7.404 70.62,8.856 72.576,8.856 Z M72.576,3.036 C73.704,3.036 74.292,3.84 74.28,4.896 L70.824,4.896 C70.872,3.648 71.532,3.036 72.576,3.036 Z" id="Shape"></path>
            <path d="M77.448,2.244 L77.448,3.192 L79.284,3.192 L79.284,7.752 L77.46,7.752 L77.46,8.7 L82.596,8.7 L82.596,7.752 L80.388,7.752 L80.388,5.484 C80.388,4.068 80.868,3.252 82.104,3.252 L83.196,3.252 L83.196,2.244 L82.092,2.244 C81.3,2.244 80.676,2.676 80.364,3.396 L80.364,2.244 L77.448,2.244 Z" id="Path"></path>
        </g>
        <g id="size_sqft" transform="translate(115.376000, 105.300000)" fill="#10162F" fill-rule="nonzero">
            <path d="M5.1,4.008 C4.86,2.856 3.924,2.136 2.556,2.136 C1.476,2.136 0.12,2.676 0.12,3.924 C0.12,5.04 0.924,5.544 1.944,5.748 L2.748,5.904 C3.564,6.048 4.104,6.348 4.104,6.948 C4.104,7.704 3.348,7.944 2.664,7.944 C1.764,7.944 1.308,7.512 1.164,6.768 L0,6.768 C0.12,7.8 0.96,8.856 2.64,8.856 C4.044,8.856 5.22,8.184 5.22,6.816 C5.22,5.52 4.02,5.1 2.904,4.884 L2.184,4.74 C1.548,4.608 1.212,4.38 1.212,3.876 C1.212,3.3 1.86,3.048 2.508,3.048 C3.24,3.048 3.804,3.288 3.948,4.008 L5.1,4.008 Z" id="Path"></path>
            <path d="M9.924,5.68434189e-14 L9.924,1.308 L11.028,1.308 L11.028,5.68434189e-14 L9.924,5.68434189e-14 Z M8.1,2.244 L8.1,3.192 L9.924,3.192 L9.924,7.752 L8.1,7.752 L8.1,8.7 L12.864,8.7 L12.864,7.752 L11.028,7.752 L11.028,2.244 L8.1,2.244 Z" id="Shape"></path>
            <polygon id="Path" points="15.492 8.7 20.82 8.7 20.82 7.752 16.836 7.752 20.76 3.192 20.76 2.244 15.72 2.244 15.72 3.192 19.416 3.192 15.492 7.752"></polygon>
            <path d="M25.908,8.856 C27.42,8.856 28.428,7.992 28.692,6.768 L27.552,6.768 C27.324,7.5 26.844,7.956 25.884,7.956 C24.864,7.956 24.144,7.104 24.144,5.808 L28.788,5.808 C28.872,3.504 27.792,2.124 25.908,2.124 C24.204,2.124 22.98,3.42 22.98,5.496 C22.98,7.404 23.952,8.856 25.908,8.856 Z M25.908,3.036 C27.036,3.036 27.624,3.84 27.612,4.896 L24.156,4.896 C24.204,3.648 24.864,3.036 25.908,3.036 Z" id="Shape"></path>
            <polygon id="Path" points="35.976 9.732 35.976 8.7 31.26 8.7 31.26 9.732"></polygon>
            <path d="M43.86,4.008 C43.62,2.856 42.684,2.136 41.316,2.136 C40.236,2.136 38.88,2.676 38.88,3.924 C38.88,5.04 39.684,5.544 40.704,5.748 L41.508,5.904 C42.324,6.048 42.864,6.348 42.864,6.948 C42.864,7.704 42.108,7.944 41.424,7.944 C40.524,7.944 40.068,7.512 39.924,6.768 L38.76,6.768 C38.88,7.8 39.72,8.856 41.4,8.856 C42.804,8.856 43.98,8.184 43.98,6.816 C43.98,5.52 42.78,5.1 41.664,4.884 L40.944,4.74 C40.308,4.608 39.972,4.38 39.972,3.876 C39.972,3.3 40.62,3.048 41.268,3.048 C42,3.048 42.564,3.288 42.708,4.008 L43.86,4.008 Z" id="Path"></path>
            <path d="M50.592,3.216 C50.22,2.592 49.644,2.136 48.672,2.136 C47.196,2.136 46.08,3.372 46.08,5.496 C46.08,7.62 47.196,8.856 48.672,8.856 C49.644,8.856 50.22,8.4 50.592,7.788 L50.592,10.8 L51.696,10.8 L51.696,2.244 L50.592,2.244 L50.592,3.216 Z M50.64,5.496 C50.64,7.2 49.824,7.932 48.912,7.932 C47.796,7.932 47.244,7.032 47.244,5.496 C47.244,3.96 47.796,3.06 48.912,3.06 C49.824,3.06 50.64,3.792 50.64,5.496 Z" id="Shape"></path>
            <path d="M55.644,2.244 L53.928,2.244 L53.928,3.192 L55.644,3.192 L55.644,8.7 L56.748,8.7 L56.748,3.192 L59.64,3.192 L59.64,2.244 L56.748,2.244 L56.748,1.776 C56.748,1.104 56.844,0.936 57.384,0.936 L59.64,0.936 L59.64,5.68434189e-14 L57.36,5.68434189e-14 C55.968,5.68434189e-14 55.644,0.432 55.644,1.776 L55.644,2.244 Z" id="Path"></path>
            <path d="M63.12,2.244 L61.284,2.244 L61.284,3.192 L63.12,3.192 L63.12,7.08 C63.12,8.424 63.456,8.7 64.632,8.7 L66.864,8.7 L66.864,7.752 L64.872,7.752 C64.26,7.752 64.224,7.584 64.224,6.924 L64.224,3.192 L66.864,3.192 L66.864,2.244 L64.224,2.244 L64.224,0.624 L63.12,0.624 L63.12,2.244 Z" id="Path"></path>
        </g>
        <g id="age" transform="translate(138.500000, 207.412000)" fill="#10162F" fill-rule="nonzero">
            <path d="M2.1,6.744 C3.3,6.744 3.972,6.312 4.368,5.64 L4.38,6.588 L5.436,6.588 C5.4,6.156 5.34,5.232 5.352,4.152 L5.364,2.58 C5.388,0.792 4.62,0 2.832,0 C1.488,0 0.264,0.78 0.156,2.172 L1.284,2.172 C1.356,1.38 1.824,0.888 2.82,0.888 C3.66,0.888 4.272,1.224 4.272,2.34 L4.272,2.616 C1.632,2.904 0,3.372 0,4.908 C0,6.072 0.936,6.744 2.1,6.744 Z M4.356,3.672 C4.356,5.388 3.396,5.856 2.412,5.856 C1.632,5.856 1.188,5.496 1.188,4.884 C1.188,3.96 2.388,3.684 4.356,3.492 L4.356,3.672 Z" id="Shape"></path>
            <path d="M11.976,1.104 C11.616,0.48 11.04,0.024 10.068,0.024 C8.58,0.024 7.464,1.128 7.464,3.252 C7.464,5.388 8.58,6.48 10.068,6.48 C11.04,6.48 11.616,6.036 11.976,5.412 L11.976,6.036 C11.976,6.912 11.856,7.212 11.64,7.464 C11.376,7.776 10.872,7.944 10.32,7.944 C9.372,7.944 9.036,7.548 8.88,6.96 L7.716,6.96 C7.908,8.232 8.904,8.904 10.308,8.904 C11.22,8.904 12.108,8.592 12.564,8.052 C12.912,7.644 13.08,7.104 13.08,5.784 L13.08,0.132 L11.976,0.132 L11.976,1.104 Z M12.024,3.252 C12.024,4.944 11.22,5.568 10.296,5.568 C9.192,5.568 8.628,4.788 8.628,3.252 C8.628,1.716 9.192,0.948 10.296,0.948 C11.22,0.948 12.024,1.548 12.024,3.252 Z" id="Shape"></path>
            <path d="M18.288,6.744 C19.8,6.744 20.808,5.88 21.072,4.656 L19.932,4.656 C19.704,5.388 19.224,5.844 18.264,5.844 C17.244,5.844 16.524,4.992 16.524,3.696 L21.168,3.696 C21.252,1.392 20.172,0.012 18.288,0.012 C16.584,0.012 15.36,1.308 15.36,3.384 C15.36,5.292 16.332,6.744 18.288,6.744 Z M18.288,0.924 C19.416,0.924 20.004,1.728 19.992,2.784 L16.536,2.784 C16.584,1.536 17.244,0.924 18.288,0.924 Z" id="Shape"></path>
        </g>
        <g id="-1.5" transform="translate(299.464000, 205.300000)" fill="#10162F" fill-rule="nonzero">
            <polygon id="Path" points="3.816 5.928 3.816 4.896 0 4.896 0 5.928"></polygon>
            <path d="M9.708,0 C9.264,0.948 8.556,1.104 7.104,1.14 L7.104,1.896 L9.324,1.896 L9.324,7.752 L7.104,7.752 L7.104,8.7 L12.252,8.7 L12.252,7.752 L10.428,7.752 L10.428,0 L9.708,0 Z" id="Path"></path>
            <polygon id="Path" points="18.096 8.7 18.096 7.32 16.716 7.32 16.716 8.7"></polygon>
            <path d="M25.152,7.908 C23.988,7.908 23.388,7.164 23.268,6.108 L22.152,6.108 C22.26,7.524 23.208,8.856 25.14,8.856 C26.688,8.856 28.164,7.8 28.164,5.832 C28.164,3.948 26.82,2.892 25.38,2.892 C24.684,2.892 24.036,3.096 23.58,3.54 L23.892,0.936 L27.78,0.936 L27.78,0 L22.956,0 L22.392,4.716 L23.544,4.764 C23.724,4.344 24.3,3.852 25.128,3.852 C26.028,3.852 26.988,4.428 26.988,5.844 C26.988,7.164 26.148,7.908 25.152,7.908 Z" id="Path"></path>
        </g>
        <g id="1000" transform="translate(298.816000, 270.144000)" fill="#10162F" fill-rule="nonzero">
            <path d="M2.604,0.156 C2.16,1.104 1.452,1.26 0,1.296 L0,2.052 L2.22,2.052 L2.22,7.908 L0,7.908 L0,8.856 L5.148,8.856 L5.148,7.908 L3.324,7.908 L3.324,0.156 L2.604,0.156 Z" id="Path"></path>
            <path d="M10.296,9.012 C12.492,9.012 13.344,7.164 13.344,4.464 C13.344,1.764 12.492,0 10.296,0 C8.1,0 7.26,1.764 7.26,4.464 C7.26,7.164 8.1,9.012 10.296,9.012 Z M8.376,4.464 C8.376,2.088 8.988,0.936 10.296,0.936 C11.34,0.936 11.952,1.68 12.144,3.192 L8.388,4.908 C8.376,4.764 8.376,4.62 8.376,4.464 Z M10.296,8.064 C9.264,8.064 8.664,7.308 8.46,5.82 L12.216,4.08 C12.228,4.212 12.228,4.332 12.228,4.464 C12.228,6.84 11.604,8.064 10.296,8.064 Z" id="Shape"></path>
            <path d="M18.048,9.012 C20.244,9.012 21.096,7.164 21.096,4.464 C21.096,1.764 20.244,0 18.048,0 C15.852,0 15.012,1.764 15.012,4.464 C15.012,7.164 15.852,9.012 18.048,9.012 Z M16.128,4.464 C16.128,2.088 16.74,0.936 18.048,0.936 C19.092,0.936 19.704,1.68 19.896,3.192 L16.14,4.908 C16.128,4.764 16.128,4.62 16.128,4.464 Z M18.048,8.064 C17.016,8.064 16.416,7.308 16.212,5.82 L19.968,4.08 C19.98,4.212 19.98,4.332 19.98,4.464 C19.98,6.84 19.356,8.064 18.048,8.064 Z" id="Shape"></path>
            <path d="M25.8,9.012 C27.996,9.012 28.848,7.164 28.848,4.464 C28.848,1.764 27.996,0 25.8,0 C23.604,0 22.764,1.764 22.764,4.464 C22.764,7.164 23.604,9.012 25.8,9.012 Z M23.88,4.464 C23.88,2.088 24.492,0.936 25.8,0.936 C26.844,0.936 27.456,1.68 27.648,3.192 L23.892,4.908 C23.88,4.764 23.88,4.62 23.88,4.464 Z M25.8,8.064 C24.768,8.064 24.168,7.308 23.964,5.82 L27.72,4.08 C27.732,4.212 27.732,4.332 27.732,4.464 C27.732,6.84 27.108,8.064 25.8,8.064 Z" id="Shape"></path>
        </g>
        <g id="2.5" transform="translate(302.332000, 140.144000)" fill="#10162F" fill-rule="nonzero">
            <path d="M3.048,0 C1.284,0 0.132,1.26 0.156,2.916 L1.284,2.916 C1.308,1.488 2.136,0.936 3.036,0.936 C4.02,0.936 4.536,1.584 4.536,2.484 C4.536,4.008 2.916,5.64 0,7.908 L0,8.856 L5.868,8.856 L5.868,7.908 L1.548,7.908 C3.768,6.132 5.712,4.356 5.712,2.34 C5.712,0.864 4.572,0 3.048,0 Z" id="Path"></path>
            <polygon id="Path" points="11.352 8.856 11.352 7.476 9.972 7.476 9.972 8.856"></polygon>
            <path d="M18.408,8.064 C17.244,8.064 16.644,7.32 16.524,6.264 L15.408,6.264 C15.516,7.68 16.464,9.012 18.396,9.012 C19.944,9.012 21.42,7.956 21.42,5.988 C21.42,4.104 20.076,3.048 18.636,3.048 C17.94,3.048 17.292,3.252 16.836,3.696 L17.148,1.092 L21.036,1.092 L21.036,0.156 L16.212,0.156 L15.648,4.872 L16.8,4.92 C16.98,4.5 17.556,4.008 18.384,4.008 C19.284,4.008 20.244,4.584 20.244,6 C20.244,7.32 19.404,8.064 18.408,8.064 Z" id="Path"></path>
        </g>
        <g id="+" transform="translate(464.296000, 201.784000)" fill="#10162F" fill-rule="nonzero">
            <polygon id="Path" points="10.176 17.216 10.176 9.984 17.408 9.984 17.408 7.232 10.176 7.232 10.176 0 7.232 0 7.232 7.232 0 7.232 0 9.984 7.232 9.984 7.232 17.216"></polygon>
        </g>
        <g id="1" transform="translate(146.444000, 306.300000)" fill="#10162F" fill-rule="nonzero">
            <path d="M2.604,0 C2.16,0.948 1.452,1.104 0,1.14 L0,1.896 L2.22,1.896 L2.22,7.752 L0,7.752 L0,8.7 L5.148,8.7 L5.148,7.752 L3.324,7.752 L3.324,0 L2.604,0 Z" id="Path"></path>
        </g>
        <g id="Output-Layer" transform="translate(425.624000, 33.144000)" fill="#10162F" fill-rule="nonzero">
            <path d="M3.252,0 C1.08,0 0,1.872 0,4.5 C0,7.116 1.08,9.012 3.252,9.012 C5.424,9.012 6.504,7.116 6.504,4.5 C6.504,1.872 5.424,0 3.252,0 Z M3.252,1.056 C4.692,1.056 5.328,2.304 5.328,4.5 C5.328,6.696 4.692,7.956 3.252,7.956 C1.824,7.956 1.176,6.696 1.176,4.5 C1.176,2.304 1.824,1.056 3.252,1.056 Z" id="Shape"></path>
            <path d="M12.396,8.856 L13.5,8.856 L13.5,2.4 L12.396,2.4 L12.396,5.952 C12.396,7.332 11.856,8.064 10.86,8.064 C9.66,8.064 9.6,7.212 9.6,6.168 L9.6,2.4 L8.496,2.4 L8.496,6.552 C8.496,7.98 8.94,9.012 10.5,9.012 C11.532,9.012 12.048,8.58 12.396,8.028 L12.396,8.856 Z" id="Path"></path>
            <path d="M17.244,2.4 L15.408,2.4 L15.408,3.348 L17.244,3.348 L17.244,7.236 C17.244,8.58 17.58,8.856 18.756,8.856 L20.988,8.856 L20.988,7.908 L18.996,7.908 C18.384,7.908 18.348,7.74 18.348,7.08 L18.348,3.348 L20.988,3.348 L20.988,2.4 L18.348,2.4 L18.348,0.78 L17.244,0.78 L17.244,2.4 Z" id="Path"></path>
            <path d="M25.056,2.4 L23.952,2.4 L23.952,10.956 L25.056,10.956 L25.056,7.944 C25.416,8.556 26.004,9.012 26.964,9.012 C28.452,9.012 29.568,7.788 29.568,5.652 C29.568,3.528 28.452,2.292 26.964,2.292 C26.004,2.292 25.416,2.748 25.056,3.372 L25.056,2.4 Z M25.008,5.652 C25.008,3.948 25.812,3.216 26.736,3.216 C27.84,3.216 28.404,4.116 28.404,5.652 C28.404,7.188 27.84,8.1 26.736,8.1 C25.812,8.1 25.008,7.356 25.008,5.652 Z" id="Shape"></path>
            <path d="M35.652,8.856 L36.756,8.856 L36.756,2.4 L35.652,2.4 L35.652,5.952 C35.652,7.332 35.112,8.064 34.116,8.064 C32.916,8.064 32.856,7.212 32.856,6.168 L32.856,2.4 L31.752,2.4 L31.752,6.552 C31.752,7.98 32.196,9.012 33.756,9.012 C34.788,9.012 35.304,8.58 35.652,8.028 L35.652,8.856 Z" id="Path"></path>
            <path d="M40.5,2.4 L38.664,2.4 L38.664,3.348 L40.5,3.348 L40.5,7.236 C40.5,8.58 40.836,8.856 42.012,8.856 L44.244,8.856 L44.244,7.908 L42.252,7.908 C41.64,7.908 41.604,7.74 41.604,7.08 L41.604,3.348 L44.244,3.348 L44.244,2.4 L41.604,2.4 L41.604,0.78 L40.5,0.78 L40.5,2.4 Z" id="Path"></path>
            <polygon id="Path" points="56.28 0.156 55.14 0.156 55.14 8.856 60.552 8.856 60.552 7.776 56.28 7.776"></polygon>
            <path d="M64.62,9.012 C65.82,9.012 66.492,8.58 66.888,7.908 L66.9,8.856 L67.956,8.856 C67.92,8.424 67.86,7.5 67.872,6.42 L67.884,4.848 C67.908,3.06 67.14,2.268 65.352,2.268 C64.008,2.268 62.784,3.048 62.676,4.44 L63.804,4.44 C63.876,3.648 64.344,3.156 65.34,3.156 C66.18,3.156 66.792,3.492 66.792,4.608 L66.792,4.884 C64.152,5.172 62.52,5.64 62.52,7.176 C62.52,8.34 63.456,9.012 64.62,9.012 Z M66.876,5.94 C66.876,7.656 65.916,8.124 64.932,8.124 C64.152,8.124 63.708,7.764 63.708,7.152 C63.708,6.228 64.908,5.952 66.876,5.76 L66.876,5.94 Z" id="Shape"></path>
            <path d="M71.34,10.956 C72.708,10.956 73.068,10.404 73.524,9.132 L75.912,2.4 L74.772,2.4 L73.056,7.38 L71.304,2.4 L70.092,2.4 L72.504,8.856 L72.456,9 C72.12,9.924 71.904,10.008 71.232,10.008 L70.068,10.008 L70.068,10.956 L71.34,10.956 Z" id="Path"></path>
            <path d="M80.808,9.012 C82.32,9.012 83.328,8.148 83.592,6.924 L82.452,6.924 C82.224,7.656 81.744,8.112 80.784,8.112 C79.764,8.112 79.044,7.26 79.044,5.964 L83.688,5.964 C83.772,3.66 82.692,2.28 80.808,2.28 C79.104,2.28 77.88,3.576 77.88,5.652 C77.88,7.56 78.852,9.012 80.808,9.012 Z M80.808,3.192 C81.936,3.192 82.524,3.996 82.512,5.052 L79.056,5.052 C79.104,3.804 79.764,3.192 80.808,3.192 Z" id="Shape"></path>
            <path d="M85.68,2.4 L85.68,3.348 L87.516,3.348 L87.516,7.908 L85.692,7.908 L85.692,8.856 L90.828,8.856 L90.828,7.908 L88.62,7.908 L88.62,5.64 C88.62,4.224 89.1,3.408 90.336,3.408 L91.428,3.408 L91.428,2.4 L90.324,2.4 C89.532,2.4 88.908,2.832 88.596,3.552 L88.596,2.4 L85.68,2.4 Z" id="Path"></path>
        </g>
        <polygon id="Line" fill="#10162F" fill-rule="nonzero" points="421 205 430 209.5 421 214 421 210 335 210 335 209 421 209"></polygon>
        <polygon id="Line-Copy-2" fill="#10162F" fill-rule="nonzero" points="285.060381 279.285907 285.384254 280.232008 192.188886 312.134987 191.865013 311.188886"></polygon>
        <g id="Group" transform="translate(313.000000, 148.500000) scale(1, -1) translate(-313.000000, -148.500000) translate(192.500000, 107.500000)" fill="#10162F" fill-rule="nonzero">
            <polygon id="Line-Copy-3" points="90.8326481 50.5661358 91.1547621 51.5128367 -0.312293447 82.6344074 -0.634407442 81.6877066"></polygon>
            <polygon id="Line-Copy-4" points="231.506419 -1.54010663 241.473654 -0.160163276 234.389358 6.98565802 233.107 3.195 142.760413 33.7469713 142.286759 33.9071346 141.966433 32.9598274 142.440086 32.7996641 232.787 2.248"></polygon>
        </g>
        <polygon id="Line-Copy-2" fill="#10162F" fill-rule="nonzero" points="424.003529 227.977815 433.97335 229.338943 426.902555 236.498123 425.614 232.711 335.457226 263.387102 334.983876 263.548159 334.661762 262.601458 335.135112 262.440401 425.291 231.764"></polygon>
        <polygon id="Line-Copy" fill="#10162F" fill-rule="nonzero" points="286 209 286 210 191 210 191 209"></polygon>
    </g>
</svg>